REM DIRINDEX 1\2,1\3,1\4,1\5
REM DIRNAME cjc093,folder01,folder02,folder03,folder04
TITLE ""
FILE "Round-11-264-265.mp3" MP3
  TRACK 01 AUDIO
    TITLE "0:"
    INDEX 01 00:00:00
  TRACK 02 AUDIO
    TITLE "2:cjc093_2972"
    INDEX 01 00:00:01
  TRACK 03 AUDIO
    TITLE "0:"
    INDEX 01 00:01:11
  TRACK 04 AUDIO
    TITLE "3:cjc093_2973"
    INDEX 01 00:01:28
  TRACK 05 AUDIO
    TITLE "0:"
    INDEX 01 00:02:51
  TRACK 06 AUDIO
    TITLE "4:cjc093_2974"
    INDEX 01 00:02:59
  TRACK 07 AUDIO
    TITLE "0:"
    INDEX 01 00:05:12
  TRACK 08 AUDIO
    TITLE "2:cjc093_2975"
    INDEX 01 00:06:26
  TRACK 09 AUDIO
    TITLE "0:"
    INDEX 01 00:07:43
  TRACK 10 AUDIO
    TITLE "3:cjc093_2976"
    INDEX 01 00:07:72
  TRACK 11 AUDIO
    TITLE "0:"
    INDEX 01 00:09:14
  TRACK 12 AUDIO
    TITLE "4:cjc093_2977"
    INDEX 01 00:09:36
  TRACK 13 AUDIO
    TITLE "0:"
    INDEX 01 00:12:48
  TRACK 14 AUDIO
    TITLE "2:cjc093_2978"
    INDEX 01 00:13:61
  TRACK 15 AUDIO
    TITLE "0:"
    INDEX 01 00:14:68
  TRACK 16 AUDIO
    TITLE "3:cjc093_2979"
    INDEX 01 00:15:30
  TRACK 17 AUDIO
    TITLE "0:"
    INDEX 01 00:16:71
  TRACK 18 AUDIO
    TITLE "4:cjc093_2980"
    INDEX 01 00:17:04
  TRACK 19 AUDIO
    TITLE "0:"
    INDEX 01 00:19:58
  TRACK 20 AUDIO
    TITLE "2:cjc093_2981"
    INDEX 01 00:20:71
  TRACK 21 AUDIO
    TITLE "0:"
    INDEX 01 00:22:03
  TRACK 22 AUDIO
    TITLE "3:cjc093_2982"
    INDEX 01 00:22:40
  TRACK 23 AUDIO
    TITLE "0:"
    INDEX 01 00:23:59
  TRACK 24 AUDIO
    TITLE "4:cjc093_2983"
    INDEX 01 00:24:29
  TRACK 25 AUDIO
    TITLE "0:"
    INDEX 01 00:27:04
  TRACK 26 AUDIO
    TITLE "2:cjc093_2984"
    INDEX 01 00:28:17
  TRACK 27 AUDIO
    TITLE "0:"
    INDEX 01 00:29:23
  TRACK 28 AUDIO
    TITLE "3:cjc093_2985"
    INDEX 01 00:29:60
  TRACK 29 AUDIO
    TITLE "0:"
    INDEX 01 00:31:02
  TRACK 30 AUDIO
    TITLE "4:cjc093_2986"
    INDEX 01 00:31:12
  TRACK 31 AUDIO
    TITLE "0:"
    INDEX 01 00:33:73
  TRACK 32 AUDIO
    TITLE "3:cjc093_2987"
    INDEX 01 00:35:12
  TRACK 33 AUDIO
    TITLE "0:"
    INDEX 01 00:36:40
  TRACK 34 AUDIO
    TITLE "4:cjc093_2988"
    INDEX 01 00:36:64
  TRACK 35 AUDIO
    TITLE "0:"
    INDEX 01 00:40:50
  TRACK 36 AUDIO
    TITLE "2:cjc093_2989"
    INDEX 01 00:41:63
  TRACK 37 AUDIO
    TITLE "0:"
    INDEX 01 00:43:07
  TRACK 38 AUDIO
    TITLE "3:cjc093_2990"
    INDEX 01 00:43:25
  TRACK 39 AUDIO
    TITLE "0:"
    INDEX 01 00:44:52
  TRACK 40 AUDIO
    TITLE "4:cjc093_2991"
    INDEX 01 00:44:67
  TRACK 41 AUDIO
    TITLE "0:"
    INDEX 01 00:47:30
  TRACK 42 AUDIO
    TITLE "2:cjc093_2992"
    INDEX 01 00:48:44
  TRACK 43 AUDIO
    TITLE "0:"
    INDEX 01 00:49:53
  TRACK 44 AUDIO
    TITLE "3:cjc093_2993"
    INDEX 01 00:50:11
  TRACK 45 AUDIO
    TITLE "0:"
    INDEX 01 00:51:63
  TRACK 46 AUDIO
    TITLE "4:cjc093_2994"
    INDEX 01 00:52:06
  TRACK 47 AUDIO
    TITLE "0:"
    INDEX 01 00:54:64
  TRACK 48 AUDIO
    TITLE "2:cjc093_2995"
    INDEX 01 00:56:02
  TRACK 49 AUDIO
    TITLE "0:"
    INDEX 01 00:57:03
  TRACK 50 AUDIO
    TITLE "3:cjc093_2996"
    INDEX 01 00:57:43
  TRACK 51 AUDIO
    TITLE "0:"
    INDEX 01 00:59:20
  TRACK 52 AUDIO
    TITLE "4:cjc093_2997"
    INDEX 01 00:59:39
  TRACK 53 AUDIO
    TITLE "0:"
    INDEX 01 01:02:38
  TRACK 54 AUDIO
    TITLE "2:cjc093_2998"
    INDEX 01 01:03:59
  TRACK 55 AUDIO
    TITLE "0:"
    INDEX 01 01:04:54
  TRACK 56 AUDIO
    TITLE "3:cjc093_2999"
    INDEX 01 01:05:11
  TRACK 57 AUDIO
    TITLE "0:"
    INDEX 01 01:06:51
  TRACK 58 AUDIO
    TITLE "4:cjc093_3000"
    INDEX 01 01:06:61
  TRACK 59 AUDIO
    TITLE "0:"
    INDEX 01 01:09:01
